<mxfile host="app.diagrams.net" agent="Mozilla/5.0 (Windows NT 10.0; Win64; x64; rv:132.0) Gecko/20100101 Firefox/132.0" version="24.9.1">
  <diagram name="Page-1" id="NapXdTHSGaCD6bSlKuh5">
    <mxGraphModel dx="1050" dy="1630" grid="1" gridSize="10" guides="1" tooltips="1" connect="1" arrows="1" fold="1" page="1" pageScale="1" pageWidth="850" pageHeight="1100" math="0" shadow="0">
      <root>
        <mxCell id="0" />
        <mxCell id="1" parent="0" />
        <mxCell id="meybb4_pzIe_2fTEvy26-1" value="Student" style="shape=umlActor;verticalLabelPosition=bottom;verticalAlign=top;html=1;" vertex="1" parent="1">
          <mxGeometry x="20" y="200" width="30" height="60" as="geometry" />
        </mxCell>
        <mxCell id="meybb4_pzIe_2fTEvy26-8" value="Reviews" style="ellipse;whiteSpace=wrap;html=1;" vertex="1" parent="1">
          <mxGeometry x="200" y="120" width="140" height="70" as="geometry" />
        </mxCell>
        <mxCell id="meybb4_pzIe_2fTEvy26-12" value="Open review" style="ellipse;whiteSpace=wrap;html=1;" vertex="1" parent="1">
          <mxGeometry x="460" width="140" height="70" as="geometry" />
        </mxCell>
        <mxCell id="meybb4_pzIe_2fTEvy26-13" value="" style="endArrow=block;startArrow=none;endFill=0;startFill=0;endSize=8;html=1;verticalAlign=bottom;dashed=1;labelBackgroundColor=none;rounded=0;" edge="1" parent="1" source="meybb4_pzIe_2fTEvy26-16" target="meybb4_pzIe_2fTEvy26-12">
          <mxGeometry width="160" relative="1" as="geometry">
            <mxPoint x="270" y="120" as="sourcePoint" />
            <mxPoint x="430" y="120" as="targetPoint" />
          </mxGeometry>
        </mxCell>
        <mxCell id="meybb4_pzIe_2fTEvy26-14" value="" style="endArrow=block;startArrow=none;endFill=0;startFill=0;endSize=8;html=1;verticalAlign=bottom;dashed=1;labelBackgroundColor=none;rounded=0;" edge="1" parent="1" source="meybb4_pzIe_2fTEvy26-8">
          <mxGeometry width="160" relative="1" as="geometry">
            <mxPoint x="299.9961087138393" y="188.20967391617916" as="sourcePoint" />
            <mxPoint x="410" y="155" as="targetPoint" />
          </mxGeometry>
        </mxCell>
        <mxCell id="meybb4_pzIe_2fTEvy26-15" value="&lt;div&gt;Close review&lt;/div&gt;" style="ellipse;whiteSpace=wrap;html=1;" vertex="1" parent="1">
          <mxGeometry x="410" y="120" width="140" height="70" as="geometry" />
        </mxCell>
        <mxCell id="meybb4_pzIe_2fTEvy26-16" value="Coach" style="shape=umlActor;verticalLabelPosition=bottom;verticalAlign=top;html=1;" vertex="1" parent="1">
          <mxGeometry x="850" y="130" width="30" height="60" as="geometry" />
        </mxCell>
        <mxCell id="meybb4_pzIe_2fTEvy26-18" value="" style="endArrow=block;startArrow=none;endFill=0;startFill=0;endSize=8;html=1;verticalAlign=bottom;dashed=1;labelBackgroundColor=none;rounded=0;" edge="1" parent="1" source="meybb4_pzIe_2fTEvy26-16" target="meybb4_pzIe_2fTEvy26-15">
          <mxGeometry width="160" relative="1" as="geometry">
            <mxPoint x="360" y="210" as="sourcePoint" />
            <mxPoint x="520" y="210" as="targetPoint" />
          </mxGeometry>
        </mxCell>
        <mxCell id="meybb4_pzIe_2fTEvy26-19" value="" style="endArrow=block;startArrow=none;endFill=0;startFill=0;endSize=8;html=1;verticalAlign=bottom;dashed=1;labelBackgroundColor=none;rounded=0;" edge="1" parent="1" source="meybb4_pzIe_2fTEvy26-9" target="meybb4_pzIe_2fTEvy26-20">
          <mxGeometry width="160" relative="1" as="geometry">
            <mxPoint x="330" y="300" as="sourcePoint" />
            <mxPoint x="490" y="300" as="targetPoint" />
          </mxGeometry>
        </mxCell>
        <mxCell id="meybb4_pzIe_2fTEvy26-20" value="&lt;div&gt;Submit exercise&lt;/div&gt;" style="ellipse;whiteSpace=wrap;html=1;" vertex="1" parent="1">
          <mxGeometry x="650" y="230" width="140" height="70" as="geometry" />
        </mxCell>
        <mxCell id="meybb4_pzIe_2fTEvy26-21" value="" style="endArrow=block;startArrow=none;endFill=0;startFill=0;endSize=8;html=1;verticalAlign=bottom;dashed=1;labelBackgroundColor=none;rounded=0;" edge="1" parent="1" source="meybb4_pzIe_2fTEvy26-20" target="meybb4_pzIe_2fTEvy26-12">
          <mxGeometry width="160" relative="1" as="geometry">
            <mxPoint x="420" y="240" as="sourcePoint" />
            <mxPoint x="580" y="240" as="targetPoint" />
          </mxGeometry>
        </mxCell>
        <mxCell id="meybb4_pzIe_2fTEvy26-24" value="&amp;lt;&amp;lt;include&amp;gt;&amp;gt;" style="edgeLabel;html=1;align=center;verticalAlign=middle;resizable=0;points=[];" vertex="1" connectable="0" parent="meybb4_pzIe_2fTEvy26-21">
          <mxGeometry x="-0.5567" y="2" relative="1" as="geometry">
            <mxPoint x="-32" y="-42" as="offset" />
          </mxGeometry>
        </mxCell>
        <mxCell id="meybb4_pzIe_2fTEvy26-22" value="" style="endArrow=block;startArrow=none;endFill=0;startFill=0;endSize=8;html=1;verticalAlign=bottom;dashed=1;labelBackgroundColor=none;rounded=0;" edge="1" parent="1" source="meybb4_pzIe_2fTEvy26-12" target="meybb4_pzIe_2fTEvy26-8">
          <mxGeometry width="160" relative="1" as="geometry">
            <mxPoint x="420" y="200" as="sourcePoint" />
            <mxPoint x="580" y="200" as="targetPoint" />
          </mxGeometry>
        </mxCell>
        <mxCell id="meybb4_pzIe_2fTEvy26-25" value="&amp;lt;&amp;lt;include&amp;gt;&amp;gt;" style="edgeLabel;html=1;align=center;verticalAlign=middle;resizable=0;points=[];" vertex="1" connectable="0" parent="meybb4_pzIe_2fTEvy26-22">
          <mxGeometry x="-0.2731" y="-1" relative="1" as="geometry">
            <mxPoint x="-11" y="6" as="offset" />
          </mxGeometry>
        </mxCell>
        <mxCell id="meybb4_pzIe_2fTEvy26-23" value="Exercise Universe" style="shape=umlFrame;whiteSpace=wrap;html=1;pointerEvents=0;recursiveResize=0;container=1;collapsible=0;width=160;" vertex="1" parent="1">
          <mxGeometry x="180" y="-40" width="650" height="500" as="geometry" />
        </mxCell>
        <mxCell id="meybb4_pzIe_2fTEvy26-32" value="Mattermost" style="ellipse;whiteSpace=wrap;html=1;" vertex="1" parent="meybb4_pzIe_2fTEvy26-23">
          <mxGeometry x="20" y="380" width="140" height="70" as="geometry" />
        </mxCell>
        <mxCell id="meybb4_pzIe_2fTEvy26-9" value="Exercises" style="ellipse;whiteSpace=wrap;html=1;" vertex="1" parent="meybb4_pzIe_2fTEvy26-23">
          <mxGeometry x="20" y="270" width="140" height="70" as="geometry" />
        </mxCell>
        <mxCell id="meybb4_pzIe_2fTEvy26-30" value="" style="endArrow=none;startArrow=none;endFill=0;startFill=0;endSize=8;html=1;verticalAlign=bottom;labelBackgroundColor=none;strokeWidth=3;rounded=0;" edge="1" parent="1" source="meybb4_pzIe_2fTEvy26-1" target="meybb4_pzIe_2fTEvy26-9">
          <mxGeometry width="160" relative="1" as="geometry">
            <mxPoint x="20" y="104.14909090909099" as="sourcePoint" />
            <mxPoint x="108.54730989599238" y="79.99982457382042" as="targetPoint" />
          </mxGeometry>
        </mxCell>
        <mxCell id="meybb4_pzIe_2fTEvy26-31" value="" style="endArrow=none;startArrow=none;endFill=0;startFill=0;endSize=8;html=1;verticalAlign=bottom;labelBackgroundColor=none;strokeWidth=3;rounded=0;" edge="1" parent="1" source="meybb4_pzIe_2fTEvy26-1" target="meybb4_pzIe_2fTEvy26-8">
          <mxGeometry width="160" relative="1" as="geometry">
            <mxPoint x="130" y="200" as="sourcePoint" />
            <mxPoint x="219" y="180" as="targetPoint" />
          </mxGeometry>
        </mxCell>
        <mxCell id="meybb4_pzIe_2fTEvy26-33" value="" style="endArrow=none;startArrow=none;endFill=0;startFill=0;endSize=8;html=1;verticalAlign=bottom;labelBackgroundColor=none;strokeWidth=3;rounded=0;" edge="1" parent="1" source="meybb4_pzIe_2fTEvy26-1" target="meybb4_pzIe_2fTEvy26-32">
          <mxGeometry width="160" relative="1" as="geometry">
            <mxPoint x="120" y="300" as="sourcePoint" />
            <mxPoint x="215" y="337" as="targetPoint" />
          </mxGeometry>
        </mxCell>
        <mxCell id="meybb4_pzIe_2fTEvy26-34" value="" style="endArrow=block;startArrow=none;endFill=0;startFill=0;endSize=8;html=1;verticalAlign=bottom;dashed=1;labelBackgroundColor=none;rounded=0;" edge="1" parent="1" source="meybb4_pzIe_2fTEvy26-20" target="meybb4_pzIe_2fTEvy26-16">
          <mxGeometry width="160" relative="1" as="geometry">
            <mxPoint x="810" y="270" as="sourcePoint" />
            <mxPoint x="970" y="270" as="targetPoint" />
          </mxGeometry>
        </mxCell>
        <mxCell id="meybb4_pzIe_2fTEvy26-35" value="&amp;lt;&amp;lt;extend&amp;gt;&amp;gt;" style="edgeLabel;html=1;align=center;verticalAlign=middle;resizable=0;points=[];" vertex="1" connectable="0" parent="meybb4_pzIe_2fTEvy26-34">
          <mxGeometry x="-0.2708" y="1" relative="1" as="geometry">
            <mxPoint x="8" y="-2" as="offset" />
          </mxGeometry>
        </mxCell>
      </root>
    </mxGraphModel>
  </diagram>
</mxfile>
